<svg width="18" height="18" viewBox="0 0 18 18" fill="none" xmlns="http://www.w3.org/2000/svg">
<g clip-path="url(#clip0_78_219)">
<path d="M10.9707 15.946C10.6833 16.5832 10.4933 17.2748 10.4205 18L16.5024 16.7072C16.7898 16.07 16.9796 15.3783 17.0526 14.6531L10.9707 15.946ZM16.5024 12.8339C16.7898 12.1968 16.9798 11.5051 17.0526 10.7799L12.315 11.7875V9.85051L16.5023 8.96067C16.7897 8.32356 16.9796 7.63187 17.0524 6.90665L12.3148 7.91339V0.947429C11.5889 1.35503 10.9442 1.89758 10.4201 2.53756V8.31626L8.52541 8.71898V0C7.79947 0.407453 7.15477 0.950151 6.63069 1.59013V9.12156L2.39126 10.0224C2.10387 10.6595 1.91375 11.3512 1.84083 12.0765L6.63069 11.0585V13.4978L1.49741 14.5887C1.21002 15.2258 1.02005 15.9175 0.947266 16.6427L6.32037 15.5008C6.75777 15.4099 7.1337 15.1513 7.37812 14.7954L8.36351 13.3345V13.3342C8.46581 13.1831 8.52541 13.0008 8.52541 12.8045V10.6558L10.4201 10.2531V14.127L16.5023 12.8336L16.5024 12.8339Z" fill="#080C22"/>
</g>
<defs>
<clipPath id="clip0_78_219">
<rect width="18" height="18" fill="white"/>
</clipPath>
</defs>
</svg>
