<svg width="68" height="68" viewBox="0 0 68 68" fill="none" xmlns="http://www.w3.org/2000/svg">
<path opacity="0.4" d="M41.9051 62.3359L26.095 62.3359C14.4784 62.3359 10.9367 58.7942 10.9367 47.1775L10.9367 28.081L19.4934 28.081C20.57 28.081 21.4767 27.1743 21.4767 26.0977L46.5235 26.0977C46.5235 27.1743 47.4301 28.081 48.5068 28.081L57.0635 28.081L57.0635 47.1775C57.0635 58.7942 53.5218 62.3359 41.9051 62.3359Z" fill="#0C74EB"/>
<path d="M34.2834 52.3294C34.7367 52.811 35.445 52.981 36.0684 52.7827C36.72 52.5844 37.1734 52.046 37.2584 51.366L37.7967 47.7394C37.825 47.5977 37.91 47.4844 38.0234 47.4277L41.3101 45.8127C41.9051 45.5294 42.2734 44.906 42.2734 44.2544C42.2734 43.5744 41.9051 42.9794 41.3101 42.6677L38.0234 41.0527C37.8817 40.996 37.7967 40.8544 37.7967 40.7127L37.2584 37.086C37.1734 36.4344 36.6917 35.8677 36.0684 35.6694C35.4167 35.471 34.7367 35.641 34.2834 36.1227L31.7334 38.7577C31.6484 38.871 31.4784 38.8994 31.3367 38.871L27.7384 38.2477C27.0867 38.1344 26.4067 38.3894 26.0384 38.956C25.8117 39.2677 25.6984 39.6077 25.6984 39.976C25.6984 40.2594 25.755 40.5427 25.8967 40.7977L27.5967 44.056C27.6534 44.1694 27.6534 44.3394 27.5967 44.4527L25.8967 47.711C25.585 48.306 25.6417 49.0144 26.0384 49.5527C26.435 50.091 27.0867 50.3744 27.7667 50.261L31.365 49.6377C31.5067 49.6094 31.6484 49.666 31.7617 49.751L34.2834 52.3294Z" fill="#0C74EB"/>
<path d="M46.5235 26.0967L21.4767 26.0967C21.4767 25.02 20.57 24.1134 19.4934 24.1134L10.9367 24.1134L10.9367 20.8267C10.9367 9.63505 14.28 5.95171 24.7067 5.69672C25.245 5.66838 25.755 5.89505 26.1234 6.26338C26.52 6.63171 26.7184 7.17005 26.7184 7.68005C26.7184 11.6467 29.9767 14.905 33.9717 14.905C37.9667 14.905 41.2535 11.6467 41.2535 7.68005C41.2535 7.11338 41.4518 6.63172 41.8485 6.26338C42.2168 5.89505 42.7551 5.66838 43.2651 5.69672C53.7201 5.95172 57.0635 9.63505 57.0635 20.8267L57.0635 24.1134L48.5068 24.1134C47.4018 24.1134 46.5235 25.02 46.5235 26.0967Z" fill="#0C74EB"/>
</svg>
